<?xml version="1.0" encoding="UTF-8"?>
<svg width="14px" height="12px" viewBox="0 0 14 12" version="1.1" xmlns="http://www.w3.org/2000/svg" xmlns:xlink="http://www.w3.org/1999/xlink">
    <!-- Generator: Sketch 48.2 (47327) - http://www.bohemiancoding.com/sketch -->
    <title>icon-time</title>
    <desc>Created with Sketch.</desc>
    <defs></defs>
    <g id="01.Home-Page" stroke="none" stroke-width="1" fill="none" fill-rule="evenodd" transform="translate(-732.000000, -30.000000)">
        <path d="M739.876828,30 C739.048709,30 738.266878,30.1523803 737.531315,30.4571429 C736.795751,30.7619054 736.152752,31.1785691 735.602296,31.7071433 C735.051841,32.2357175 734.613432,32.8571392 734.287056,33.5714286 C733.96068,34.2857179 733.787752,35.0476142 733.768267,35.8571429 L733.768267,36 L732,36 L734.688935,38.8571429 L737.290188,36 L735.302714,36 L735.302714,35.8571429 C735.3222,35.247616 735.453723,34.6785737 735.697285,34.1499995 C735.940849,33.6214254 736.269657,33.1619072 736.683716,32.7714286 C737.097776,32.3809499 737.580024,32.0714295 738.130481,31.8428562 C738.680935,31.6142848 739.263045,31.4999991 739.876828,31.4999991 C740.510094,31.4999991 741.106817,31.6190464 741.667015,31.8571429 C742.227211,32.0952393 742.714332,32.4166638 743.128393,32.821429 C743.542452,33.2261925 743.868822,33.7023781 744.107515,34.2500005 C744.346208,34.797621 744.465552,35.3809499 744.465552,36 C744.465552,36.6190501 744.346208,37.202379 744.107515,37.7499995 C743.868822,38.2976219 743.542452,38.7761883 743.128393,39.1857152 C742.714332,39.5952402 742.227211,39.9166647 741.667015,40.1499995 C741.106817,40.3833346 740.510094,40.5 739.876828,40.5 C739.370214,40.5 738.887964,40.4238102 738.430063,40.2714286 C737.972162,40.1190473 737.548367,39.9047625 737.158663,39.6285714 L736.121086,40.7285714 C736.637442,41.1285734 737.214681,41.4404751 737.852818,41.6642856 C738.490957,41.8880964 739.165619,42 739.876828,42 C740.724431,42 741.518438,41.8428587 742.258873,41.5285714 C742.999307,41.2142841 743.647179,40.785717 744.202506,40.2428571 C744.757832,39.6999973 745.196241,39.0642889 745.517744,38.3357147 C745.839249,37.6071387 746,36.8285751 746,36 C746,35.1714249 745.839249,34.3928613 745.517744,33.6642853 C745.196241,32.9357111 744.757832,32.3000027 744.202506,31.7571438 C743.647179,31.214283 742.999307,30.7857152 742.258873,30.4714277 C741.518438,30.1571419 740.724431,30 739.876828,30 Z M739.131524,32.3428571 L739.131524,36 C739.131524,36.0476197 739.136395,36.0952375 739.146137,36.1428571 C739.155881,36.1904768 739.170493,36.2380946 739.189979,36.2857143 C739.209465,36.3238089 739.231384,36.3642862 739.255741,36.4071424 C739.280097,36.4500005 739.31176,36.4857143 739.350732,36.5142857 L741.747391,38.8571429 C741.854558,38.790475 741.956853,38.7190473 742.05428,38.6428562 C742.151706,38.566667 742.244258,38.4857143 742.331942,38.4 L740.622129,36.7285723 L740.622129,32.3428571 L739.131524,32.3428571 Z" id="icon-time" fill="#E11F2F"></path>
    </g>
</svg>