<?xml version="1.0" encoding="UTF-8"?>
<svg width="10px" height="16px" viewBox="0 0 10 16" version="1.1" xmlns="http://www.w3.org/2000/svg" xmlns:xlink="http://www.w3.org/1999/xlink">
    <!-- Generator: Sketch 48.2 (47327) - http://www.bohemiancoding.com/sketch -->
    <title>icon-mobile</title>
    <desc>Created with Sketch.</desc>
    <defs></defs>
    <g id="01.Home-Page" stroke="none" stroke-width="1" fill="none" fill-rule="evenodd" transform="translate(-936.000000, -3141.000000)">
        <path d="M941.729168,3156.1125 C941.937503,3155.9125 942.041669,3155.675 942.041669,3155.4 C942.041669,3155.125 941.939673,3154.88958 941.735678,3154.69375 C941.531684,3154.49792 941.286459,3154.4 941.000001,3154.4 C940.713541,3154.4 940.468316,3154.49792 940.264325,3154.69375 C940.06033,3154.88958 939.958334,3155.125 939.958334,3155.4 C939.958334,3155.675 940.06033,3155.91042 940.264325,3156.10625 C940.468316,3156.30208 940.713541,3156.4 941.000001,3156.4 C941.286459,3156.4 941.529514,3156.30417 941.729168,3156.1125 Z M944.750001,3153.4 L944.750001,3144.6 C944.750001,3144.49167 944.708768,3144.39792 944.626302,3144.31875 C944.543836,3144.23958 944.446184,3144.2 944.333335,3144.2 L937.666667,3144.2 C937.553819,3144.2 937.456164,3144.23958 937.373698,3144.31875 C937.291232,3144.39792 937.25,3144.49167 937.25,3144.6 L937.25,3153.4 C937.25,3153.50833 937.291232,3153.60208 937.373698,3153.68125 C937.456164,3153.76042 937.553819,3153.8 937.666667,3153.8 L944.333335,3153.8 C944.446184,3153.8 944.543836,3153.76042 944.626302,3153.68125 C944.708768,3153.60208 944.750001,3153.50833 944.750001,3153.4 Z M942.041669,3143 C942.180557,3143 942.25,3142.93334 942.25,3142.8 C942.25,3142.66667 942.180557,3142.6 942.041669,3142.6 L939.958334,3142.6 C939.819445,3142.6 939.75,3142.66667 939.75,3142.8 C939.75,3142.93334 939.819445,3143 939.958334,3143 L942.041669,3143 Z M946,3142.6 L946,3155.4 C946,3155.83334 945.835071,3156.20833 945.505211,3156.525 C945.175347,3156.84167 944.784727,3157 944.333335,3157 L937.666667,3157 C937.215276,3157 936.824655,3156.84167 936.494792,3156.525 C936.164929,3156.20833 936,3155.83334 936,3155.4 L936,3142.6 C936,3142.16666 936.164929,3141.79167 936.494792,3141.475 C936.824655,3141.15833 937.215276,3141 937.666667,3141 L944.333335,3141 C944.784727,3141 945.175347,3141.15833 945.505211,3141.475 C945.835071,3141.79167 946,3142.16666 946,3142.6 Z" id="icon-mobile" fill="#FFFFFF"></path>
    </g>
</svg>