<?xml version="1.0" encoding="UTF-8"?>
<svg width="12px" height="12px" viewBox="0 0 12 12" version="1.1" xmlns="http://www.w3.org/2000/svg" xmlns:xlink="http://www.w3.org/1999/xlink">
    <!-- Generator: Sketch 48.2 (47327) - http://www.bohemiancoding.com/sketch -->
    <title>icon-call</title>
    <desc>Created with Sketch.</desc>
    <defs></defs>
    <g id="01.Home-Page" stroke="none" stroke-width="1" fill="none" fill-rule="evenodd" transform="translate(-159.000000, -1345.000000)">
        <path d="M161.40625,1350.1875 C162.406256,1352.12501 163.87499,1353.59374 165.8125,1354.59375 L167.28125,1353.125 C167.489584,1352.91667 167.718748,1352.86458 167.96875,1352.96875 C168.718754,1353.21875 169.510412,1353.34375 170.34375,1353.34375 C170.53125,1353.34375 170.6875,1353.40625 170.8125,1353.53125 C170.9375,1353.65625 171,1353.8125 171,1354 L171,1356.34375 C171,1356.53125 170.9375,1356.6875 170.8125,1356.8125 C170.6875,1356.9375 170.53125,1357 170.34375,1357 C167.218734,1357 164.546886,1355.89064 162.328124,1353.67188 C160.109364,1351.45311 159,1348.78127 159,1345.65625 C159,1345.46875 159.062499,1345.3125 159.1875,1345.1875 C159.312501,1345.0625 159.468749,1345 159.65625,1345 L162,1345 C162.1875,1345 162.34375,1345.0625 162.46875,1345.1875 C162.59375,1345.3125 162.65625,1345.46875 162.65625,1345.65625 C162.65625,1346.48959 162.781248,1347.28125 163.03125,1348.03125 C163.114584,1348.30208 163.0625,1348.53125 162.875,1348.71875 L161.40625,1350.1875 Z" id="icon-call" fill="#000000"></path>
    </g>
</svg>