<?xml version="1.0" encoding="UTF-8"?>
<svg width="15px" height="12px" viewBox="0 0 15 12" version="1.1" xmlns="http://www.w3.org/2000/svg" xmlns:xlink="http://www.w3.org/1999/xlink">
    <!-- Generator: Sketch 48.2 (47327) - http://www.bohemiancoding.com/sketch -->
    <title>icon-mail</title>
    <desc>Created with Sketch.</desc>
    <defs></defs>
    <g id="01.Home-Page" stroke="none" stroke-width="1" fill="none" fill-rule="evenodd" transform="translate(-936.000000, -3199.000000)">
        <path d="M948.953092,3199 L938.046908,3199 C937.460551,3199 936.972817,3199.19271 936.583689,3199.57812 C936.194561,3199.96354 936,3200.4375 936,3201 L936,3209 C936,3209.57292 936.194561,3210.04948 936.583689,3210.42969 C936.972817,3210.8099 937.460551,3211 938.046908,3211 L948.953092,3211 C949.539449,3211 950.027184,3210.8099 950.416312,3210.42969 C950.805439,3210.04948 951,3209.57292 951,3209 L951,3201 C951,3200.4375 950.805439,3199.96354 950.416312,3199.57812 C950.027184,3199.19271 949.539449,3199 948.953092,3199 Z M938.046908,3200.34375 L948.953092,3200.34375 C949.091686,3200.34375 949.21162,3200.375 949.312899,3200.4375 C949.41418,3200.5 949.502132,3200.59896 949.576758,3200.73438 L943.499999,3204.875 L937.423241,3200.73438 C937.497868,3200.59896 937.58582,3200.5 937.6871,3200.4375 C937.78838,3200.375 937.908315,3200.34375 938.046908,3200.34375 Z M948.953092,3209.67188 L938.046908,3209.67188 C937.833688,3209.67188 937.665779,3209.61198 937.543177,3209.49219 C937.420575,3209.3724 937.359275,3209.20833 937.359275,3209 L937.359275,3202.26562 L943.084223,3206.20312 C943.158849,3206.23438 943.23081,3206.26562 943.300106,3206.29688 C943.369404,3206.32813 943.436033,3206.34375 943.499999,3206.34375 C943.563967,3206.34375 943.630596,3206.32813 943.699894,3206.29688 C943.76919,3206.26562 943.841151,3206.23438 943.915779,3206.20312 L949.640724,3202.26562 L949.640724,3209 C949.640724,3209.20833 949.579425,3209.3724 949.456824,3209.49219 C949.334222,3209.61198 949.166312,3209.67188 948.953092,3209.67188 Z" id="icon-mail" fill="#FFFFFF"></path>
    </g>
</svg>