<svg width="20" height="20" viewBox="0 0 20 20" fill="none" xmlns="http://www.w3.org/2000/svg">
<path d="M6.66666 4.79166C6.325 4.79166 6.04166 4.50833 6.04166 4.16666V1.66666C6.04166 1.325 6.325 1.04166 6.66666 1.04166C7.00833 1.04166 7.29166 1.325 7.29166 1.66666V4.16666C7.29166 4.50833 7.00833 4.79166 6.66666 4.79166Z" fill="#292D32"/>
<path d="M13.3333 4.79166C12.9917 4.79166 12.7083 4.50833 12.7083 4.16666V1.66666C12.7083 1.325 12.9917 1.04166 13.3333 1.04166C13.675 1.04166 13.9583 1.325 13.9583 1.66666V4.16666C13.9583 4.50833 13.675 4.79166 13.3333 4.79166Z" fill="#292D32"/>
<path d="M17.0833 8.19997H2.91666C2.575 8.19997 2.29166 7.91663 2.29166 7.57497C2.29166 7.2333 2.575 6.94997 2.91666 6.94997H17.0833C17.425 6.94997 17.7083 7.2333 17.7083 7.57497C17.7083 7.91663 17.425 8.19997 17.0833 8.19997Z" fill="#292D32"/>
<path d="M13.3333 18.9583H6.66667C3.625 18.9583 1.875 17.2083 1.875 14.1667V7.08334C1.875 4.04167 3.625 2.29167 6.66667 2.29167H13.3333C16.375 2.29167 18.125 4.04167 18.125 7.08334V14.1667C18.125 17.2083 16.375 18.9583 13.3333 18.9583ZM6.66667 3.54167C4.28333 3.54167 3.125 4.70001 3.125 7.08334V14.1667C3.125 16.55 4.28333 17.7083 6.66667 17.7083H13.3333C15.7167 17.7083 16.875 16.55 16.875 14.1667V7.08334C16.875 4.70001 15.7167 3.54167 13.3333 3.54167H6.66667Z" fill="#292D32"/>
<path d="M7.08333 12.0833C6.975 12.0833 6.86666 12.0584 6.76666 12.0167C6.66666 11.975 6.57501 11.9167 6.49167 11.8417C6.41667 11.7583 6.35832 11.6667 6.31666 11.5667C6.27499 11.4667 6.25 11.3583 6.25 11.25C6.25 11.0333 6.34167 10.8167 6.49167 10.6584C6.57501 10.5834 6.66666 10.525 6.76666 10.4833C6.91666 10.4167 7.08334 10.4 7.25001 10.4333C7.30001 10.4417 7.35 10.4583 7.4 10.4833C7.45 10.5 7.5 10.525 7.55 10.5584C7.59166 10.5917 7.63333 10.625 7.67499 10.6584C7.70833 10.7 7.74999 10.7417 7.77499 10.7834C7.80832 10.8334 7.83334 10.8833 7.85001 10.9333C7.87501 10.9833 7.89168 11.0333 7.90001 11.0833C7.90834 11.1417 7.91667 11.1917 7.91667 11.25C7.91667 11.4667 7.82499 11.6833 7.67499 11.8417C7.51666 11.9917 7.3 12.0833 7.08333 12.0833Z" fill="#292D32"/>
<path d="M10 12.0833C9.78334 12.0833 9.56668 11.9917 9.40835 11.8417C9.37501 11.8 9.34168 11.7583 9.30835 11.7167C9.27502 11.6667 9.24999 11.6167 9.23333 11.5667C9.20833 11.5167 9.19166 11.4667 9.18333 11.4167C9.175 11.3583 9.16667 11.3083 9.16667 11.25C9.16667 11.1417 9.19166 11.0333 9.23333 10.9333C9.27499 10.8333 9.33335 10.7417 9.40835 10.6583C9.64168 10.425 10.0167 10.35 10.3167 10.4833C10.425 10.525 10.5083 10.5833 10.5917 10.6583C10.7417 10.8167 10.8333 11.0333 10.8333 11.25C10.8333 11.3083 10.825 11.3583 10.8167 11.4167C10.8083 11.4667 10.7917 11.5167 10.7667 11.5667C10.75 11.6167 10.725 11.6667 10.6917 11.7167C10.6583 11.7583 10.625 11.8 10.5917 11.8417C10.5083 11.9167 10.425 11.975 10.3167 12.0167C10.2167 12.0583 10.1083 12.0833 10 12.0833Z" fill="#292D32"/>
<path d="M7.08333 15C6.975 15 6.86666 14.975 6.76666 14.9333C6.66666 14.8917 6.57501 14.8333 6.49167 14.7583C6.41667 14.675 6.35832 14.5917 6.31666 14.4833C6.27499 14.3833 6.25 14.275 6.25 14.1667C6.25 13.95 6.34167 13.7333 6.49167 13.575C6.57501 13.5 6.66666 13.4416 6.76666 13.4C7.075 13.2666 7.44166 13.3417 7.67499 13.575C7.70833 13.6167 7.74999 13.6583 7.77499 13.7C7.80832 13.75 7.83334 13.8 7.85001 13.85C7.87501 13.9 7.89168 13.95 7.90001 14.0083C7.90834 14.0583 7.91667 14.1167 7.91667 14.1667C7.91667 14.3833 7.82499 14.6 7.67499 14.7583C7.51666 14.9083 7.3 15 7.08333 15Z" fill="#292D32"/>
</svg>
