<?xml version="1.0" encoding="UTF-8"?>
<svg width="11px" height="16px" viewBox="0 0 11 16" version="1.1" xmlns="http://www.w3.org/2000/svg" xmlns:xlink="http://www.w3.org/1999/xlink">
    <!-- Generator: Sketch 48.2 (47327) - http://www.bohemiancoding.com/sketch -->
    <title>icon-map</title>
    <desc>Created with Sketch.</desc>
    <defs></defs>
    <g id="01.Home-Page" stroke="none" stroke-width="1" fill="none" fill-rule="evenodd" transform="translate(-936.000000, -3100.000000)">
        <path d="M945.46,3101.57017 C944.433329,3100.52338 943.09239,3100 941.437143,3100 C939.781896,3100 938.46191,3100.51815 937.477143,3101.55446 C936.492376,3102.59078 936,3103.93588 936,3105.58979 C936,3106.21786 936.178093,3106.99247 936.534286,3107.91364 C936.890478,3108.83481 937.314759,3109.74026 937.807143,3110.63003 C938.299525,3111.51979 938.797141,3112.36244 939.3,3113.158 C939.802859,3113.95355 940.23238,3114.59208 940.588571,3115.0736 L941.122857,3115.79588 C941.311429,3116.06804 941.520951,3116.06804 941.751429,3115.79588 C941.898096,3115.60746 942.086665,3115.351 942.317143,3115.0265 C942.54762,3114.70199 942.966663,3114.0844 943.574286,3113.1737 C944.181908,3112.263 944.716188,3111.40465 945.177143,3110.59862 C945.638098,3109.7926 946.057141,3108.91332 946.434286,3107.96074 C946.811431,3107.00817 947,3106.21786 947,3105.58979 C947,3103.93588 946.486671,3102.59601 945.46,3101.57017 Z M943.92,3107.75662 C943.228567,3108.4475 942.400957,3108.79293 941.437143,3108.79293 C940.473329,3108.79293 939.645718,3108.4475 938.954286,3107.75662 C938.262853,3107.06575 937.917143,3106.2388 937.917143,3105.27576 C937.917143,3104.31272 938.262853,3103.48577 938.954286,3102.7949 C939.645718,3102.10402 940.473329,3101.75859 941.437143,3101.75859 C942.400957,3101.75859 943.228567,3102.10402 943.92,3102.7949 C944.611433,3103.48577 944.957143,3104.31272 944.957143,3105.27576 C944.957143,3106.2388 944.611433,3107.06575 943.92,3107.75662 Z" id="icon-map" fill="#FFFFFF"></path>
    </g>
</svg>