<?xml version="1.0" encoding="UTF-8"?>
<svg width="16px" height="16px" viewBox="0 0 16 16" version="1.1" xmlns="http://www.w3.org/2000/svg" xmlns:xlink="http://www.w3.org/1999/xlink">
    <!-- Generator: Sketch 48.2 (47327) - http://www.bohemiancoding.com/sketch -->
    <title>icon-contact</title>
    <desc>Created with Sketch.</desc>
    <defs></defs>
    <g id="01.Home-Page" stroke="none" stroke-width="1" fill="none" fill-rule="evenodd" transform="translate(-159.000000, -1270.000000)">
        <path d="M161.666667,1278 C161.666667,1277.75 161.75,1277.54167 161.916667,1277.375 C162.083333,1277.20833 162.291667,1277.125 162.541667,1277.125 C162.791667,1277.125 163.006944,1277.20833 163.187499,1277.375 C163.368056,1277.54167 163.458333,1277.75 163.458333,1278 C163.458333,1278.25 163.368056,1278.45833 163.187499,1278.625 C163.006944,1278.79167 162.791667,1278.875 162.541667,1278.875 C162.291667,1278.875 162.083333,1278.79167 161.916667,1278.625 C161.75,1278.45833 161.666667,1278.25 161.666667,1278 Z M172.333333,1278 C172.333333,1278.25 172.25,1278.45833 172.083333,1278.625 C171.916667,1278.79167 171.708333,1278.875 171.458333,1278.875 C171.208333,1278.875 170.993056,1278.79167 170.812501,1278.625 C170.631944,1278.45833 170.541667,1278.25 170.541667,1278 C170.541667,1277.75 170.631944,1277.54167 170.812501,1277.375 C170.993056,1277.20833 171.208333,1277.125 171.458333,1277.125 C171.708333,1277.125 171.916667,1277.20833 172.083333,1277.375 C172.25,1277.54167 172.333333,1277.75 172.333333,1278 Z M166.125,1270 L167,1270 C169.222235,1270 171.111104,1270.77777 172.666667,1272.33333 C174.222229,1273.8889 175,1275.77777 175,1278 C175,1280.22223 174.222229,1282.1111 172.666667,1283.66667 C171.111104,1285.22223 169.222235,1286 167,1286 C164.777765,1286 162.888896,1285.22223 161.333333,1283.66667 C159.77777,1282.1111 159,1280.22223 159,1278 C159,1275.33332 160.069434,1273.20834 162.208333,1271.625 L162.208333,1271.58333 L168.25,1277.625 L167,1278.875 L162.166667,1274.08333 C161.249995,1275.22223 160.791667,1276.52777 160.791667,1278 C160.791667,1279.72223 161.395827,1281.18749 162.604165,1282.39583 C163.812507,1283.60417 165.277768,1284.20833 167,1284.20833 C168.722232,1284.20833 170.187493,1283.60417 171.395835,1282.39583 C172.604173,1281.18749 173.208333,1279.72223 173.208333,1278 C173.208333,1276.44444 172.694451,1275.08334 171.666667,1273.91667 C170.638883,1272.74999 169.375008,1272.05556 167.875,1271.83333 L167.875,1273.54167 L166.125,1273.54167 L166.125,1270 Z M166.125,1282.45833 C166.125,1282.20833 166.208333,1281.99306 166.375,1281.8125 C166.541667,1281.63194 166.75,1281.54167 167,1281.54167 C167.25,1281.54167 167.458333,1281.63194 167.625,1281.8125 C167.791667,1281.99306 167.875,1282.20833 167.875,1282.45833 C167.875,1282.70833 167.791667,1282.91667 167.625,1283.08333 C167.458333,1283.25 167.25,1283.33333 167,1283.33333 C166.75,1283.33333 166.541667,1283.25 166.375,1283.08333 C166.208333,1282.91667 166.125,1282.70833 166.125,1282.45833 Z" id="icon-contact" fill="#FFFFFF"></path>
    </g>
</svg>