<?xml version="1.0" encoding="UTF-8"?>
<svg width="23px" height="16px" viewBox="0 0 23 16" version="1.1" xmlns="http://www.w3.org/2000/svg" xmlns:xlink="http://www.w3.org/1999/xlink">
    <!-- Generator: Sketch 48.2 (47327) - http://www.bohemiancoding.com/sketch -->
    <title>icon-delivery-truck</title>
    <desc>Created with Sketch.</desc>
    <defs></defs>
    <g id="01.Home-Page" stroke="none" stroke-width="1" fill="none" fill-rule="evenodd" transform="translate(-159.000000, -1486.000000)">
        <g id="icon-delivery-truck" transform="translate(159.000000, 1486.000000)" fill="#FFFFFF" fill-rule="nonzero">
            <path d="M0.807029412,10.648963 L0.807029412,1.00511111 C0.807029412,0.469222222 1.24782516,0.0347777778 1.79163235,0.0347777778 L11.5722696,0.0347777778 C12.1160392,0.0347777778 12.556835,0.469222222 12.556835,1.00511111 L12.556835,10.649 C12.556835,10.8276296 12.4099281,10.9724444 12.228634,10.9724444 L1.13523039,10.9724444 C0.953936275,10.9724444 0.807029412,10.8276296 0.807029412,10.648963 Z M8.70519935,13.9527407 C8.70519935,15.0642222 7.79087418,15.9652593 6.66308497,15.9652593 C5.53529575,15.9652593 4.62097059,15.0642222 4.62097059,13.9527407 C4.62097059,12.8412222 5.53529575,11.9402222 6.66308497,11.9402222 C7.79087418,11.9402222 8.70519935,12.8412222 8.70519935,13.9527407 Z M7.68410458,13.9527407 C7.68410458,13.397 7.22696078,12.9464815 6.66304739,12.9464815 C6.09913399,12.9464815 5.64195261,13.397 5.64195261,13.9527407 C5.64195261,14.5084815 6.09913399,14.959037 6.66304739,14.959037 C7.22696078,14.959037 7.68410458,14.5084815 7.68410458,13.9527407 Z M4.90422386,11.9401852 L0.32820098,11.9401852 C0.146944444,11.9401852 0,12.085 0,12.2636296 L0,13.2449259 C0,13.4235556 0.146944444,13.5683704 0.32820098,13.5683704 L3.99609967,13.5683704 C4.09185784,12.9208148 4.42351634,12.3488148 4.90422386,11.9401852 Z M19.3898268,13.9527407 C19.3898268,15.0642222 18.4755016,15.9652593 17.3477124,15.9652593 C16.2198856,15.9652593 15.305598,15.0642222 15.305598,13.9527407 C15.305598,12.8412222 16.2198856,11.9402222 17.3477124,11.9402222 C18.4755016,11.9401852 19.3898268,12.8412222 19.3898268,13.9527407 Z M18.3688072,13.9527407 C18.3688072,13.397 17.9116258,12.9464815 17.3477124,12.9464815 C16.7837614,12.9464815 16.3266552,13.397 16.3266552,13.9527407 C16.3266552,14.5084815 16.783799,14.959037 17.3477124,14.959037 C17.9116258,14.959037 18.3688072,14.5084815 18.3688072,13.9527407 Z M23,12.2636296 L23,13.2449259 C23,13.4235556 22.8530556,13.5683704 22.671799,13.5683704 L20.0146225,13.5683704 C19.8245719,12.2838148 18.7027958,11.2932963 17.3477876,11.2932963 C15.9925163,11.2932963 14.8707026,12.2838519 14.680652,13.5683704 L9.33007026,13.5683704 C9.23427451,12.9208519 8.90265359,12.3488148 8.42194608,11.9401852 L13.49525,11.9401852 L13.49525,2.68866667 C13.49525,2.33140741 13.7891389,2.04177778 14.151652,2.04177778 L17.2500752,2.04177778 C18.1224967,2.04177778 18.9379069,2.46885185 19.4260556,3.18140741 L21.4235229,6.097 C21.7165098,6.52466667 21.8730752,7.02888889 21.8730752,7.54492593 L21.8730752,11.9401852 L22.671799,11.9401852 C22.8530556,11.9401852 23,12.085 23,12.2636296 Z M19.6705621,6.17166667 L18.0733023,3.93488889 C18.0118186,3.84881481 17.911701,3.79759259 17.8048938,3.79759259 L15.313415,3.79759259 C15.1321961,3.79759259 14.9852141,3.94240741 14.9852141,4.12103704 L14.9852141,6.35781481 C14.9852141,6.53648148 15.1321585,6.68125926 15.313415,6.68125926 L19.4022288,6.68125926 C19.6680817,6.68125926 19.8235948,6.38596296 19.6705621,6.17166667 Z" id="Shape"></path>
        </g>
    </g>
</svg>